<svg width="1000" height="600" viewBox="0 0 1000 600" fill="none" xmlns="http://www.w3.org/2000/svg">
<path d="M787.297 273.779C781.979 226.428 739.337 192.315 691.971 197.526C644.454 202.752 610.206 245.565 615.542 293.07C620.878 340.576 663.768 374.726 711.262 369.281C758.602 363.853 792.616 321.133 787.297 273.779ZM759.231 279.469C761.678 311.26 737.962 339.045 706.18 341.621C674.218 344.211 646.239 320.328 643.778 288.356C641.317 256.383 665.313 228.5 697.294 226.168C729.094 223.85 756.784 247.68 759.231 279.469Z" fill="white"/>
<path d="M384.15 215.234C360.974 200.935 342.703 199.375 316.054 201.291C240.972 214.898 217.437 306.538 280.953 351.085C301.22 365.3 326.456 368.806 350.888 365.132C401.989 354.632 428.833 314.353 419.329 263.257C415.741 243.958 400.472 225.523 384.15 215.234ZM388.622 268.931C396.804 299.824 378.407 331.503 347.521 339.708C316.599 347.923 284.877 329.501 276.685 298.574C268.496 267.644 286.943 235.937 317.878 227.771C348.779 219.615 380.443 238.039 388.622 268.931Z" fill="white"/>
<path d="M450.531 200.996L426.396 200.59C426.06 220.443 426.283 240.875 426.502 261.105C426.59 269.043 426.676 276.951 426.726 284.781C426.787 294.012 426.621 303.869 426.451 313.865C426.156 331.277 425.855 349.115 426.734 364.816L455.982 365.117C456.234 352.718 456.185 340.258 456.134 327.795C456.092 316.638 456.047 305.48 456.218 294.369C456.267 291.205 456.234 287.928 456.199 284.611C456.121 277.031 456.041 269.248 456.947 262.164L457.783 263.285C469.121 278.633 483.347 304.246 493.255 321.265L494.3 323.062C515.988 360.336 516.375 360.998 539.566 321.287C550.339 302.838 564.115 277.021 576.644 258.178C577.158 276.492 576.798 294.484 577.216 312.611C577.247 317.318 577.238 322.306 577.226 327.408C577.199 339.988 577.171 353.254 577.771 364.666C587.005 364.816 597.929 364.791 607.013 365.332C608.734 354.947 607.847 326.859 607.193 306.172C606.966 298.994 606.769 292.707 606.716 288.359C606.558 275.158 606.796 261.484 607.036 247.822C607.314 231.941 607.591 216.078 607.243 200.99C605.036 200.99 602.8 200.979 600.55 200.969C594.378 200.94 588.107 200.91 582.078 201.086C566.951 225.133 553.222 251.269 538.644 275.703C532.617 285.806 523.855 303.056 516.835 311.787C499.052 283.303 484.791 254.756 467.242 226.313C462.527 218.67 456.373 207.387 450.531 200.996Z" fill="white"/>
<path d="M249.936 224.305C226.709 204.393 212.434 200.602 183.491 200.391C94.8933 206.006 68.7586 312.035 144.567 356.867C161.647 366.968 183.211 366.984 202.295 365.689C223.786 364.109 238.813 354.851 253.295 339.179C251.389 337.056 248.983 334.474 247.418 332.15C243.248 325.951 237.524 324.513 232.293 320.728L225.504 327.488C214.256 337.674 200.747 340.89 186.03 340.295C109.532 337.193 114.417 220.58 193.893 227.975C216.42 230.07 216.008 236.392 232.034 247.861C236.684 243.43 250.53 232.439 252.785 229.676C252.664 227.174 252.371 226.393 249.936 224.305Z" fill="white"/>
<path d="M623.97 453.782C670.339 446.569 654.993 388.819 616.882 394.376C573.89 399.747 579.454 456.817 623.97 453.782ZM632.878 404.923C648.464 415.938 646.108 439.415 627.511 445.245C605.815 449.487 593.284 436.165 599.819 414.417C601.657 408.302 608.202 404.741 613.857 402.669C618.724 402.386 628.927 402.13 632.878 404.923Z" fill="white"/>
<path d="M511.419 394.439L511.366 394.441C505.522 394.582 499.681 394.693 493.837 394.773C493.667 399.478 493.761 403.937 493.858 408.631L493.864 408.896C494.046 417.547 493.905 426.209 493.767 434.867C493.667 441.058 493.565 447.248 493.583 453.429C496.94 453.338 500.507 453.365 504.151 453.392C513.856 453.467 524.118 453.547 532.47 451.361C539.917 449.187 544.804 446.203 548.3 439.656C556.278 424.713 552.667 405.57 536.329 398.246C527.165 394.139 520.95 394.258 511.419 394.439ZM506.444 445.422C505.575 445.369 504.706 445.316 503.841 445.267C503.448 441.502 503.536 437.283 503.62 433.248C503.649 431.769 503.681 430.318 503.687 428.922C503.657 420.148 503.69 411.375 503.784 402.601C505.298 402.596 506.89 402.556 508.53 402.513C518.196 402.267 529.546 401.978 536.382 408.545C545.167 416.984 545.017 430.601 536.978 439.404C528.421 446.767 517.286 446.086 506.444 445.422Z" fill="white"/>
<path d="M269.983 394.191L262.007 394.316C253.143 406.227 245.499 421.527 236.813 434.127C234.331 430.328 213.659 395.334 211.851 394.795C210.075 394.268 207.897 394.252 206.05 394.162C203.554 396.062 203.939 410.441 204.249 422.109C204.415 428.312 204.56 433.75 204.241 436.139C203.884 438.824 203.927 449.852 204.349 452.771C206.067 453.982 209.651 453.566 212.054 453.289C212.329 453.256 212.589 453.226 212.829 453.201C213.505 439.529 213.569 427.101 213.55 413.434C213.827 413.715 214.112 413.99 214.382 414.281C216.159 416.178 219.868 422.539 223.763 429.215C229.017 438.223 234.604 447.805 236.225 447.76C238.427 447.699 240.05 446.092 241.382 444.496C249.003 435.369 252.944 422.844 259.729 412.986C259.968 417.215 260.071 420.688 260.036 424.92L260.573 453.217C261.409 453.238 262.259 453.266 263.112 453.291C265.304 453.361 267.534 453.432 269.665 453.42C270.138 436.391 270.331 411.227 269.983 394.191Z" fill="white"/>
<path d="M799.435 394.315C799.234 394.323 799.016 394.331 798.777 394.337C796.012 394.624 794.465 394.794 792.691 397.063C790.529 399.827 768.252 449.225 767.59 452.448L768.033 453.333C770.359 453.938 772.305 453.686 774.561 453.395C775.025 453.337 775.502 453.274 776 453.218C779 449.222 781.185 443.585 783.103 438.907C788.875 438.827 794.647 438.831 800.418 438.923L813.912 438.829C816.279 443.8 818.582 448.798 820.818 453.829L830.719 453.72C829.83 450.288 823.254 437.054 821.346 433.317C816.48 423.782 808.918 402.897 803.322 394.964C801.564 394.243 800.998 394.263 799.435 394.315ZM801.193 431.645C796.336 431.606 791.82 431.593 786.961 431.419C790.51 422.313 794.211 413.269 798.057 404.286C799.9 406.218 809.566 428.134 810.459 431.532C807.371 431.612 804.281 431.649 801.193 431.645Z" fill="white"/>
<path d="M398.132 394.684C397.907 394.698 397.692 394.711 397.493 394.723C397.384 400.866 397.52 407.514 397.655 414.049C397.727 417.608 397.8 421.133 397.833 424.526C397.866 428.098 397.788 432.061 397.71 436.08C397.589 442.266 397.464 448.592 397.739 453.86C401.257 453.854 403.585 453.729 407.055 453.446C407.553 445.192 407.444 435.776 407.337 426.563C407.274 421.291 407.214 416.086 407.268 411.202C414.911 420.686 423.092 429.717 430.284 439.631C433.508 444.076 438.001 449.223 441.739 453.266L449.94 453.313C449.962 448.291 449.796 443.274 449.629 438.256L449.606 437.539C449.374 430.555 449.421 423.532 449.465 416.512C449.51 409.276 449.557 402.043 449.301 394.858C446.049 394.815 443.76 394.821 440.528 395.014C439.838 404.455 440.049 427.539 440.288 437.418C435.128 429.649 427.727 422.514 421.86 415.118C416.839 408.789 411.979 401.327 406.011 395.868C404.29 394.297 400.557 394.532 398.132 394.684Z" fill="white"/>
<path d="M351.693 394.985C339.041 394.612 326.383 394.542 313.727 394.776C313.207 404.411 313.35 414.516 313.494 424.645C313.633 434.446 313.771 444.27 313.312 453.715C318.447 453.721 323.391 453.633 328.285 453.547C337.697 453.379 346.932 453.215 357.027 453.727L357.211 446.012C345.721 446.1 334.232 446.084 322.744 445.965C322.742 445.694 322.738 445.28 322.734 444.754C322.691 440.245 322.57 427.592 323.496 426.764C333.258 426.661 343.021 426.704 352.783 426.893C352.783 426.815 352.791 426.668 352.799 426.467C352.865 424.877 353.074 419.936 352.209 419.854C345.627 419.213 338.642 419.262 331.771 419.309C328.75 419.331 325.748 419.352 322.812 419.313C322.92 413.696 322.828 408.477 323.127 402.836C323.494 402.792 323.859 402.745 324.227 402.698C329.859 401.93 335.68 402.008 341.457 402.087C346.076 402.147 350.666 402.21 355.109 401.838C354.775 401.866 354.996 401.407 355.328 400.711C356.23 398.831 357.955 395.231 351.693 394.985Z" fill="white"/>
<path d="M696.254 394.713C692.94 394.754 689.625 394.797 686.313 394.822C686.137 397.799 686.151 399.471 686.194 402.416C690.012 402.396 693.742 402.305 697.442 402.213C705.873 402.006 714.131 401.801 722.836 402.473C723.031 402.273 723.109 402.197 723.109 402.197C723.109 402.197 721.961 403.377 722.17 403.113C710.66 417.629 698.906 431.967 687.24 446.338C686.543 447.197 686.508 450.152 686.496 451.252C686.494 451.338 686.494 451.414 686.492 451.474L686.473 453.345C696.498 453.857 711.461 453.775 724.19 453.707C728.305 453.683 732.188 453.662 735.594 453.664C737.57 452.596 737.063 449.273 736.701 446.92C736.633 446.474 736.57 446.062 736.529 445.707C733.559 445.711 730.66 445.728 727.803 445.748C718.346 445.808 709.32 445.867 699.426 445.365C701.414 442.363 703.01 439.799 705.506 436.998C715.83 425.406 724.955 412.58 734.613 400.418C735.272 399.59 735.287 395.088 734.531 395.047C721.795 394.394 709.026 394.555 696.254 394.713Z" fill="white"/>
<path d="M792.25 368V334.5L854.5 291.5C857.667 289.167 860.917 286.667 864.25 284C867.583 281.167 870.667 278 873.5 274.5C876.333 271 878.667 267.25 880.5 263.25C882.333 259.083 883.25 254.667 883.25 250C883.25 245 882.083 240.75 879.75 237.25C877.583 233.75 874.333 231 870 229C865.833 227 860.667 226 854.5 226C849 226 844.25 226.833 840.25 228.5C836.417 230.167 833.167 232.667 830.5 236C828 239.167 826.167 243.167 825 248C823.833 252.833 823.25 258.417 823.25 264.75L793 258.75C792.667 246.583 794.833 236.083 799.5 227.25C804.333 218.25 811.417 211.333 820.75 206.5C830.083 201.5 841.5 199 855 199C866.833 199 877.167 200.917 886 204.75C895 208.583 902 214.083 907 221.25C912 228.417 914.5 237.25 914.5 247.75C914.5 255.917 913.083 263.333 910.25 270C907.583 276.5 904.083 282.417 899.75 287.75C895.417 293.083 890.667 297.833 885.5 302C880.333 306 875.333 309.583 870.5 312.75L828.5 341V343L917.5 341.75V368H792.25Z" fill="white"/>
</svg>
